# xmcd
#
# Track frame offsets:
#	150
#	15867
#	30061
#	50389
#	69611
#	89780
#	107319
#	124901
#	146469
#	161849
#	178380
#	197366
#	214872
#
# Disc length: 3137 seconds
# Revision: 0
# Processed by: cddbd v1.5.2PL0 Copyright (c) Steve Scherf et al.
# Submitted via: dBpowerAMP V12.0
#
DISCID=ab0c3f0d
DTITLE=Lloyd Spiegel - Double Live Set
DYEAR=2015
DGENRE=Blues
TTITLE0=Statesboro Blues
TTITLE1=Love In Vain
TTITLE2=Tangled Brew
TTITLE3=The Man That I Was
TTITLE4=New York City
TTITLE5=I Shall Be Released
TTITLE6=Lucille
TTITLE7=Road, Dirt and Rail
TTITLE8=King With No Crown
TTITLE9=Confession
TTITLE10=Dirt Road To Paradise
TTITLE11=Mississippi Sun
TTITLE12=I'm Down (and out and sorry)
EXTD=
EXTT0=
EXTT1=
EXTT2=
EXTT3=
EXTT4=
EXTT5=
EXTT6=
EXTT7=
EXTT8=
EXTT9=
EXTT10=
EXTT11=
EXTT12=
PLAYORDER=
